<svg width="25" height="24" viewBox="0 0 25 24" fill="none" xmlns="http://www.w3.org/2000/svg">
<g id="Frame">
<g id="Group">
<path id="Vector" d="M12.7002 14C14.3602 14 15.6902 12.66 15.6902 11L15.7002 5C15.7002 3.34 14.3602 2 12.7002 2C11.0402 2 9.70016 3.34 9.70016 5V11C9.70016 12.66 11.0402 14 12.7002 14ZM18.0002 11C18.0002 14 15.4602 16.1 12.7002 16.1C9.94016 16.1 7.40016 14 7.40016 11H5.70016C5.70016 14.41 8.42016 17.23 11.7002 17.72V21H13.7002V17.72C16.9802 17.24 19.7002 14.42 19.7002 11H18.0002Z" fill="#52525B"/>
</g>
</g>
</svg>
