<svg width="21" height="20" viewBox="0 0 21 20" fill="none" xmlns="http://www.w3.org/2000/svg">
<g id="Icon">
<path id="Vector" fill-rule="evenodd" clip-rule="evenodd" d="M8.70016 4C7.6393 4 6.62188 4.42143 5.87174 5.17158C5.12159 5.92172 4.70016 6.93914 4.70016 8C4.70016 9.06087 5.12159 10.0783 5.87174 10.8284C6.62188 11.5786 7.6393 12 8.70016 12C9.76103 12 10.7784 11.5786 11.5286 10.8284C12.2787 10.0783 12.7002 9.06087 12.7002 8C12.7002 6.93914 12.2787 5.92172 11.5286 5.17158C10.7784 4.42143 9.76103 4 8.70016 4ZM2.70016 8C2.70004 7.05571 2.92281 6.12472 3.35034 5.28274C3.77787 4.44077 4.39809 3.7116 5.16056 3.15453C5.92303 2.59746 6.80623 2.22822 7.73831 2.07684C8.67039 1.92546 9.62505 1.99621 10.5246 2.28335C11.4242 2.57049 12.2433 3.06591 12.9153 3.7293C13.5873 4.39269 14.0933 5.20534 14.392 6.10114C14.6907 6.99693 14.7738 7.9506 14.6345 8.88456C14.4952 9.81852 14.1373 10.7064 13.5902 11.476L18.4072 16.293C18.5893 16.4816 18.6901 16.7342 18.6878 16.9964C18.6856 17.2586 18.5804 17.5094 18.395 17.6948C18.2096 17.8802 17.9588 17.9854 17.6966 17.9877C17.4344 17.99 17.1818 17.8892 16.9932 17.707L12.1772 12.891C11.2795 13.5293 10.2235 13.9082 9.12484 13.9861C8.02617 14.0641 6.92724 13.8381 5.94846 13.333C4.96969 12.8278 4.14885 12.063 3.57589 11.1224C3.00293 10.1817 2.69995 9.10144 2.70016 8Z" fill="#71717A"/>
</g>
</svg>
